<svg width="56" height="44" viewBox="0 0 56 44" fill="none" xmlns="http://www.w3.org/2000/svg">
<path d="M39.5273 32.0677C39.6197 34.5261 39.3081 37.3091 38.081 39.6735C37.3961 40.9383 36.055 41.7976 34.5128 41.7976C32.2744 41.7976 30.4599 39.9876 30.4599 37.7549C30.4599 37.0483 30.6919 36.4999 30.961 35.8062C31.5136 34.3815 31.6345 33.6089 31.6964 32.0603C31.7005 29.9445 33.4519 28.2305 35.6118 28.2305C37.7743 28.2305 39.5273 29.9485 39.5273 32.0677Z" fill="white"/>
<path d="M48.3199 42.1402C48.3199 42.5474 48.5938 42.8908 48.9679 42.997C50.2952 43.4491 51.9773 43.506 52.779 43.3817C53.2953 43.3402 53.937 42.9387 54.2275 42.4828C54.4288 42.1689 54.6497 41.843 54.8167 41.506C55.1853 40.762 55.3885 40.0593 55.5685 39.2202C55.6372 38.9643 55.485 38.7013 55.2285 38.6328C55.0929 38.5965 54.9554 38.6219 54.8457 38.6916C53.767 39.4954 52.837 40.052 51.5371 40.5914C50.6846 40.945 49.8 41.0222 48.9264 41.2963C48.5737 41.4154 48.3199 41.7482 48.3199 42.1402Z" fill="white"/>
<path d="M34.3436 9.03462C32.3645 8.27883 30.4293 7.92343 28.4257 7.87987C28.6059 6.0241 28.3551 4.21048 28.2618 2.32971C28.2618 1.04304 29.3074 0 30.5973 0C32.5293 0.1178 34.075 1.00809 35.5323 2.1922C36.1238 2.72859 36.5985 3.47479 36.7639 4.05872C37.2895 5.72326 37.6447 7.36929 37.7413 9.04474C37.7413 9.57454 37.3107 10.004 36.7796 10.004C36.5753 10.004 36.2798 9.9669 36.0445 9.85852C35.4071 9.54016 35.075 9.31391 34.3436 9.03462Z" fill="white"/>
<path d="M45.9013 22.4035C45.4622 22.4035 45.1328 22.7585 45.1328 23.1965C45.3183 27.5055 48.6656 30.5213 52.1822 32.7133C52.195 30.0146 50.862 27.3177 48.4985 25.7213C47.5606 25.028 46.9743 24.1346 46.6813 23.0422C46.6093 22.6781 46.2875 22.4035 45.9013 22.4035Z" fill="white"/>
<path d="M0.235413 18.9802C0.235413 23.1808 3.64916 26.6125 7.86023 26.6125C7.86023 26.6125 7.92907 26.6125 8.05753 26.6067C8.34087 26.6067 8.58756 26.4064 8.58756 26.1513C8.58756 26.033 8.53817 25.9218 8.45693 25.8137C7.95153 25.2321 8.06631 24.9818 8.06631 24.3934C8.06631 22.804 9.358 21.5155 10.9514 21.5155C11.3215 21.5155 11.6754 21.585 12.0006 21.7117C12.0777 21.7381 12.3228 21.7896 12.4626 21.7896C14.1319 21.7896 15.4851 20.4397 15.4851 18.7747C15.4851 14.5741 12.0713 11.3744 7.86023 11.3744C3.64916 11.3744 0.235413 14.7796 0.235413 18.9802Z" fill="white"/>
</svg>
