<svg width="112" height="23" viewBox="0 0 112 23" fill="none" xmlns="http://www.w3.org/2000/svg">
<path d="M7.67338 7.67097C9.70913 7.67097 11.3912 8.39734 12.7197 9.85008C14.0578 11.2933 14.7268 13.071 14.7268 15.1832C14.7268 17.238 14.0578 18.9823 12.7197 20.4159C11.3912 21.84 9.70913 22.552 7.67338 22.552C5.52294 22.552 3.83126 21.7205 2.59834 20.0575L2.45497 21.9069C2.41674 22.2032 2.2686 22.3513 2.01055 22.3513H0.806302C0.510019 22.3513 0.361877 22.2032 0.361877 21.9069L0.361877 1.363C0.361877 1.06672 0.510019 0.918579 0.806302 0.918579L2.12524 0.918579C2.42152 0.918579 2.56966 1.06672 2.56966 1.363L2.56966 10.2802C3.8217 8.5407 5.52294 7.67097 7.67338 7.67097ZM7.50134 20.5593C8.9732 20.5593 10.1918 20.0432 11.1571 19.011C12.1224 17.9692 12.6051 16.6837 12.6051 15.1545C12.6051 13.5871 12.1176 12.2825 11.1428 11.2407C10.1774 10.1894 8.96364 9.66371 7.50134 9.66371C6.0486 9.66371 4.83479 10.1989 3.85993 11.2694C2.89462 12.3303 2.41196 13.6253 2.41196 15.1545C2.41196 16.6837 2.89462 17.9692 3.85993 19.011C4.83479 20.0432 6.0486 20.5593 7.50134 20.5593Z" fill="white"/>
<path d="M31.596 7.95769C31.8923 7.95769 32.0404 8.10583 32.0404 8.40212V21.9069C32.0404 22.2032 31.8923 22.3513 31.596 22.3513H30.3917C30.1337 22.3513 29.9855 22.2032 29.9473 21.9069L29.8039 20.0575C28.571 21.7205 26.8793 22.552 24.7289 22.552C22.6931 22.552 21.0062 21.84 19.6682 20.4159C18.3397 18.9823 17.6755 17.238 17.6755 15.1832C17.6755 13.071 18.3397 11.2933 19.6682 9.85008C21.0062 8.39734 22.6931 7.67097 24.7289 7.67097C26.8985 7.67097 28.5997 8.55026 29.8326 10.3088L29.9473 8.40212C29.9855 8.10583 30.1337 7.95769 30.3917 7.95769H31.596ZM24.9009 20.5593C26.3537 20.5593 27.5627 20.0432 28.528 19.011C29.5029 17.9692 29.9903 16.6837 29.9903 15.1545C29.9903 13.6253 29.5029 12.3303 28.528 11.2694C27.5627 10.1989 26.3537 9.66371 24.9009 9.66371C23.4291 9.66371 22.2105 10.1894 21.2452 11.2407C20.2799 12.2825 19.7972 13.5871 19.7972 15.1545C19.7972 16.6837 20.2799 17.9692 21.2452 19.011C22.2105 20.0432 23.4291 20.5593 24.9009 20.5593Z" fill="white"/>
<path d="M52.852 7.64229C54.4195 7.64229 55.6572 8.12973 56.5651 9.10459C57.4731 10.0699 57.9271 11.4892 57.9271 13.3625V21.9069C57.9271 22.2032 57.7789 22.3513 57.4826 22.3513H56.1637C55.8674 22.3513 55.7241 22.2032 55.7336 21.9069V13.5202C55.7336 12.2681 55.4373 11.3028 54.8448 10.6242C54.2618 9.94565 53.4494 9.60636 52.4076 9.60636C51.0026 9.60636 49.9179 10.0317 49.1533 10.8823C48.3887 11.7329 48.0064 12.5883 48.0064 13.4485V21.9069C48.0064 22.2032 47.8582 22.3513 47.5619 22.3513H46.243C45.9467 22.3513 45.7986 22.2032 45.7986 21.9069V13.5202C45.7986 12.2681 45.5023 11.3028 44.9097 10.6242C44.3267 9.94565 43.5191 9.60636 42.4869 9.60636C41.254 9.60636 40.2122 10.0556 39.3616 10.954C38.511 11.8428 38.0857 12.531 38.0857 13.0184V21.9069C38.0857 22.2032 37.9375 22.3513 37.6412 22.3513H36.3223C36.026 22.3513 35.8779 22.2032 35.8779 21.9069V8.40212C35.8779 8.10583 36.026 7.95769 36.3223 7.95769H37.5265C37.7846 7.95769 37.9327 8.10583 37.971 8.40212L38.0857 10.4379C39.3568 8.57415 40.9816 7.64229 42.96 7.64229C45.2538 7.64229 46.7782 8.62194 47.5333 10.5812C48.728 8.62194 50.5009 7.64229 52.852 7.64229Z" fill="white"/>
<path d="M69.0904 7.67097C71.1261 7.67097 72.8083 8.39734 74.1367 9.85008C75.4748 11.2933 76.1438 13.071 76.1438 15.1832C76.1438 17.238 75.4748 18.9823 74.1367 20.4159C72.8083 21.84 71.1261 22.552 69.0904 22.552C66.9399 22.552 65.2483 21.7205 64.0153 20.0575L63.872 21.9069C63.8337 22.2032 63.6856 22.3513 63.4276 22.3513H62.2233C61.927 22.3513 61.7789 22.2032 61.7789 21.9069V1.363C61.7789 1.06672 61.927 0.918579 62.2233 0.918579L63.5422 0.918579C63.8385 0.918579 63.9867 1.06672 63.9867 1.363V10.2802C65.2387 8.5407 66.9399 7.67097 69.0904 7.67097ZM68.9183 20.5593C70.3902 20.5593 71.6088 20.0432 72.5741 19.011C73.5394 17.9692 74.0221 16.6837 74.0221 15.1545C74.0221 13.5871 73.5346 12.2825 72.5598 11.2407C71.5945 10.1894 70.3806 9.66371 68.9183 9.66371C67.4656 9.66371 66.2518 10.1989 65.2769 11.2694C64.3116 12.3303 63.829 13.6253 63.829 15.1545C63.829 16.6837 64.3116 17.9692 65.2769 19.011C66.2518 20.0432 67.4656 20.5593 68.9183 20.5593Z" fill="white"/>
<path d="M91.5507 20.4733C90.1553 21.9164 88.4302 22.638 86.3753 22.638C84.3204 22.638 82.5905 21.9164 81.1856 20.4733C79.7902 19.0205 79.0925 17.2476 79.0925 15.1545C79.0925 13.0423 79.7902 11.2646 81.1856 9.82141C82.5905 8.36866 84.3204 7.64229 86.3753 7.64229C88.4302 7.64229 90.1553 8.36866 91.5507 9.82141C92.9556 11.2646 93.6581 13.0423 93.6581 15.1545C93.6581 17.2476 92.9556 19.0205 91.5507 20.4733ZM82.6909 19.097C83.6848 20.1292 84.913 20.6453 86.3753 20.6453C87.8471 20.6453 89.0753 20.1292 90.0597 19.097C91.0537 18.0552 91.5507 16.741 91.5507 15.1545C91.5507 13.568 91.0537 12.2538 90.0597 11.212C89.0753 10.1607 87.8471 9.63504 86.3753 9.63504C84.913 9.63504 83.6848 10.1607 82.6909 11.212C81.7064 12.2538 81.2142 13.568 81.2142 15.1545C81.2142 16.741 81.7064 18.0552 82.6909 19.097Z" fill="white"/>
<path d="M109.079 20.4733C107.684 21.9164 105.959 22.638 103.904 22.638C101.849 22.638 100.119 21.9164 98.7142 20.4733C97.3188 19.0205 96.6211 17.2476 96.6211 15.1545C96.6211 13.0423 97.3188 11.2646 98.7142 9.82141C100.119 8.36866 101.849 7.64229 103.904 7.64229C105.959 7.64229 107.684 8.36866 109.079 9.82141C110.484 11.2646 111.187 13.0423 111.187 15.1545C111.187 17.2476 110.484 19.0205 109.079 20.4733ZM100.219 19.097C101.213 20.1292 102.442 20.6453 103.904 20.6453C105.376 20.6453 106.604 20.1292 107.588 19.097C108.582 18.0552 109.079 16.741 109.079 15.1545C109.079 13.568 108.582 12.2538 107.588 11.212C106.604 10.1607 105.376 9.63504 103.904 9.63504C102.442 9.63504 101.213 10.1607 100.219 11.212C99.2351 12.2538 98.7428 13.568 98.7428 15.1545C98.7428 16.741 99.2351 18.0552 100.219 19.097Z" fill="white"/>
</svg>
